# xmcd
#
# Track frame offsets:
#	150
#	13330
#	35687
#	51085
#	65382
#	74792
#	88207
#	99945
#	113500
#	125820
#	137197
#	154115
#	167212
#	190565
#
# Disc length: 2690
#
# Revision: 1
# Processed by: cddbd v1.5.1PL0 Copyright (c) Steve Scherf et al.
# Submitted via: audiograbber 1.80.04
# Normalized: r0:TDELIM( - )
#
DISCID=c90a800e
DTITLE=Various Artist - Livin´ The Blues 1
DYEAR=1900
DGENRE=
TTITLE0=Muddy Waters - Mannish Boy
TTITLE1=Howlin´ Wolf - Wang Dang Doodle
TTITLE2=Sonny Boy Williamson - Cross My Heart
TTITLE3=Johnny Winter - Low Down Gal Of Mine
TTITLE4=Canned Heat - Big Road Blues
TTITLE5=John Mayall - A Big Man
TTITLE6=Little Walter - My Babe
TTITLE7=Lightning Hopkins - Mojo Hand
TTITLE8=John Lee Hoker - Drug Store Woman
TTITLE9=Sonny Boy Williamson - Your Funeral - My Trial
TTITLE10=Johnny Winter - Kind Hearted Woman
TTITLE11=Little Walter - Everybody Needs Somebody
TTITLE12=BB King - How Blue Can You Get
TTITLE13=Big Joe Williams - Bye Bye Baby Blues
EXTD=
EXTT0=
EXTT1=
EXTT2=
EXTT3=
EXTT4=
EXTT5=
EXTT6=
EXTT7=
EXTT8=
EXTT9=
EXTT10=
EXTT11=
EXTT12=
EXTT13=
PLAYORDER=
